<?xml version="1.0" encoding="UTF-8" standalone="no"?><svg xmlns="http://www.w3.org/2000/svg" xmlns:xlink="http://www.w3.org/1999/xlink" contentStyleType="text/css" height="258px" preserveAspectRatio="none" style="width:352px;height:258px;background:#00000000;" version="1.1" viewBox="0 0 352 258" width="352px" zoomAndPan="magnify"><defs/><g><rect height="26.4883" style="stroke:#00000000;stroke-width:1.0;fill:none;" width="161" x="88.75" y="5"/><text fill="#000000" font-family="sans-serif" font-size="14" font-weight="bold" lengthAdjust="spacing" textLength="151" x="93.75" y="23.5352">Robot Worlds design</text><!--MD5=[0262e3a8af5b446be4b55a474c992a24]
class MessageReceiver--><g id="elem_MessageReceiver"><rect codeLine="7" fill="#F1F1F1" height="64.4883" id="MessageReceiver" rx="2.5" ry="2.5" style="stroke:#181818;stroke-width:0.5;" width="207" x="69.5" y="44.4883"/><ellipse cx="111.05" cy="60.4883" fill="#ADD1B2" rx="11" ry="11" style="stroke:#181818;stroke-width:1.0;"/><path d="M113.5231,66.6313 Q112.9421,66.9302 112.3029,67.0796 Q111.6638,67.229 110.9582,67.229 Q108.4514,67.229 107.1315,65.5771 Q105.8117,63.9253 105.8117,60.8042 Q105.8117,57.6748 107.1315,56.0229 Q108.4514,54.3711 110.9582,54.3711 Q111.6638,54.3711 112.3112,54.5205 Q112.9587,54.6699 113.5231,54.9688 L113.5231,57.6914 Q112.8923,57.1104 112.2988,56.8406 Q111.7053,56.5708 111.0744,56.5708 Q109.7297,56.5708 109.0449,57.6375 Q108.3601,58.7041 108.3601,60.8042 Q108.3601,62.896 109.0449,63.9626 Q109.7297,65.0293 111.0744,65.0293 Q111.7053,65.0293 112.2988,64.7595 Q112.8923,64.4897 113.5231,63.9087 Z " fill="#000000"/><text fill="#000000" font-family="sans-serif" font-size="14" lengthAdjust="spacing" textLength="116" x="130.95" y="65.7793">MessageReceiver</text><line style="stroke:#181818;stroke-width:0.5;" x1="70.5" x2="275.5" y1="76.4883" y2="76.4883"/><line style="stroke:#181818;stroke-width:0.5;" x1="70.5" x2="275.5" y1="84.4883" y2="84.4883"/><text fill="#000000" font-family="sans-serif" font-size="14" lengthAdjust="spacing" textLength="195" x="75.5" y="102.0234">receive(jsonMessage: String)</text></g><!--MD5=[e6b5d6da52f2242622fb7358812e3fa6]
class RequestMessage--><g id="elem_RequestMessage"><rect codeLine="11" fill="#F1F1F1" height="64.4883" id="RequestMessage" rx="2.5" ry="2.5" style="stroke:#181818;stroke-width:0.5;" width="146" x="7" y="168.4883"/><ellipse cx="22" cy="184.4883" fill="#ADD1B2" rx="11" ry="11" style="stroke:#181818;stroke-width:1.0;"/><path d="M24.4731,190.6313 Q23.8921,190.9302 23.2529,191.0796 Q22.6138,191.229 21.9082,191.229 Q19.4014,191.229 18.0815,189.5771 Q16.7617,187.9253 16.7617,184.8042 Q16.7617,181.6748 18.0815,180.0229 Q19.4014,178.3711 21.9082,178.3711 Q22.6138,178.3711 23.2612,178.5205 Q23.9087,178.6699 24.4731,178.9688 L24.4731,181.6914 Q23.8423,181.1104 23.2488,180.8406 Q22.6553,180.5708 22.0244,180.5708 Q20.6797,180.5708 19.9949,181.6375 Q19.3101,182.7041 19.3101,184.8042 Q19.3101,186.896 19.9949,187.9626 Q20.6797,189.0293 22.0244,189.0293 Q22.6553,189.0293 23.2488,188.7595 Q23.8423,188.4897 24.4731,187.9087 Z " fill="#000000"/><text fill="#000000" font-family="sans-serif" font-size="14" lengthAdjust="spacing" textLength="114" x="36" y="189.7793">RequestMessage</text><line style="stroke:#181818;stroke-width:0.5;" x1="8" x2="152" y1="200.4883" y2="200.4883"/><text fill="#000000" font-family="sans-serif" font-size="14" lengthAdjust="spacing" textLength="117" x="13" y="218.0234">command: String</text><line style="stroke:#181818;stroke-width:0.5;" x1="8" x2="152" y1="224.9766" y2="224.9766"/></g><!--MD5=[8e976995eceb22f39f8f1bd9332e2237]
class ResponseMessage--><g id="elem_ResponseMessage"><rect codeLine="15" fill="#F1F1F1" height="64.4883" id="ResponseMessage" rx="2.5" ry="2.5" style="stroke:#181818;stroke-width:0.5;" width="157" x="188.5" y="168.4883"/><ellipse cx="203.5" cy="184.4883" fill="#ADD1B2" rx="11" ry="11" style="stroke:#181818;stroke-width:1.0;"/><path d="M205.9731,190.6313 Q205.3921,190.9302 204.7529,191.0796 Q204.1138,191.229 203.4082,191.229 Q200.9014,191.229 199.5815,189.5771 Q198.2617,187.9253 198.2617,184.8042 Q198.2617,181.6748 199.5815,180.0229 Q200.9014,178.3711 203.4082,178.3711 Q204.1138,178.3711 204.7612,178.5205 Q205.4087,178.6699 205.9731,178.9688 L205.9731,181.6914 Q205.3423,181.1104 204.7488,180.8406 Q204.1553,180.5708 203.5244,180.5708 Q202.1797,180.5708 201.4949,181.6375 Q200.8101,182.7041 200.8101,184.8042 Q200.8101,186.896 201.4949,187.9626 Q202.1797,189.0293 203.5244,189.0293 Q204.1553,189.0293 204.7488,188.7595 Q205.3423,188.4897 205.9731,187.9087 Z " fill="#000000"/><text fill="#000000" font-family="sans-serif" font-size="14" lengthAdjust="spacing" textLength="125" x="217.5" y="189.7793">ResponseMessage</text><line style="stroke:#181818;stroke-width:0.5;" x1="189.5" x2="344.5" y1="200.4883" y2="200.4883"/><text fill="#000000" font-family="sans-serif" font-size="14" lengthAdjust="spacing" textLength="88" x="194.5" y="218.0234">result: String</text><line style="stroke:#181818;stroke-width:0.5;" x1="189.5" x2="344.5" y1="224.9766" y2="224.9766"/></g><!--MD5=[f52e9bf674a4ce9f6d1a63c327f8a591]
link MessageReceiver to RequestMessage--><g id="link_MessageReceiver_RequestMessage"><path codeLine="19" d="M149.29,108.5883 C136.39,125.5083 120.39,146.5083 107.01,164.0583 " fill="none" id="MessageReceiver-to-RequestMessage" style="stroke:#181818;stroke-width:1.0;stroke-dasharray:7.0,7.0;"/><polygon fill="#181818" points="103.67,168.4483,112.3,163.7024,106.6951,164.4672,105.9302,158.8623,103.67,168.4483" style="stroke:#181818;stroke-width:1.0;"/></g><!--MD5=[cca4e9874c9b6a8d57b2338b55c8372a]
link MessageReceiver to ResponseMessage--><g id="link_MessageReceiver_ResponseMessage"><path codeLine="20" d="M196.96,108.5883 C210,125.5083 226.18,146.5083 239.7,164.0583 " fill="none" id="MessageReceiver-to-ResponseMessage" style="stroke:#181818;stroke-width:1.0;stroke-dasharray:7.0,7.0;"/><polygon fill="#181818" points="243.08,168.4483,240.7648,158.8754,240.0321,164.4846,234.4229,163.752,243.08,168.4483" style="stroke:#181818;stroke-width:1.0;"/></g><rect height="11.7773" style="stroke:#00000000;stroke-width:1.0;fill:none;" width="69" x="134.75" y="238.9766"/><text fill="#888888" font-family="sans-serif" font-size="10" lengthAdjust="spacing" textLength="69" x="134.75" y="248.6445">Class diagram</text><!--MD5=[3e24654da8e64ae7832a528183dfce7b]
@startuml

title Robot Worlds design
footer Class diagram

skinparam backgroundColor transparent

class MessageReceiver {
    receive(jsonMessage: String)
}

class RequestMessage {
    command: String
}

class ResponseMessage {
    result: String
}

MessageReceiver ..> RequestMessage
MessageReceiver ..> ResponseMessage

@enduml

PlantUML version 1.2022.6(Tue Jun 21 19:34:49 CEST 2022)
(GPL source distribution)
Java Runtime: OpenJDK Runtime Environment
JVM: OpenJDK 64-Bit Server VM
Default Encoding: UTF-8
Language: en
Country: NL
--></g></svg>