<?xml version="1.0" encoding="UTF-8" standalone="no"?><svg xmlns="http://www.w3.org/2000/svg" xmlns:xlink="http://www.w3.org/1999/xlink" contentStyleType="text/css" height="451px" preserveAspectRatio="none" style="width:642px;height:451px;background:#00000000;" version="1.1" viewBox="0 0 642 451" width="642px" zoomAndPan="magnify"><defs/><g><rect height="26.4883" style="stroke:#00000000;stroke-width:1.0;fill:none;" width="161" x="233.5" y="5"/><text fill="#000000" font-family="sans-serif" font-size="14" font-weight="bold" lengthAdjust="spacing" textLength="151" x="238.5" y="23.5352">Robot Worlds design</text><!--MD5=[fea78be94eb0df893621f5a665b06411]
cluster nl.dirkgroot.robotworlds--><g id="cluster_nl.dirkgroot.robotworlds"><path d="M8.5,43.4883 L185.5,43.4883 A3.75,3.75 0 0 1 188,45.9883 L195,65.9766 L632.5,65.9766 A2.5,2.5 0 0 1 635,68.4766 L635,422.9883 A2.5,2.5 0 0 1 632.5,425.4883 L8.5,425.4883 A2.5,2.5 0 0 1 6,422.9883 L6,45.9883 A2.5,2.5 0 0 1 8.5,43.4883 " style="stroke:#000000;stroke-width:1.5;fill:none;"/><line style="stroke:#000000;stroke-width:1.5;fill:none;" x1="6" x2="195" y1="65.9766" y2="65.9766"/><text fill="#000000" font-family="sans-serif" font-size="14" font-weight="bold" lengthAdjust="spacing" textLength="176" x="10" y="59.0234">nl.dirkgroot.robotworlds</text></g><!--MD5=[4ef80439e1ef409f8f3a0ec422262701]
cluster server--><g id="cluster_server"><path d="M206.5,86.4883 L251.5,86.4883 A3.75,3.75 0 0 1 254,88.9883 L261,108.9766 L608.5,108.9766 A2.5,2.5 0 0 1 611,111.4766 L611,398.9883 A2.5,2.5 0 0 1 608.5,401.4883 L206.5,401.4883 A2.5,2.5 0 0 1 204,398.9883 L204,88.9883 A2.5,2.5 0 0 1 206.5,86.4883 " style="stroke:#000000;stroke-width:1.5;fill:none;"/><line style="stroke:#000000;stroke-width:1.5;fill:none;" x1="204" x2="261" y1="108.9766" y2="108.9766"/><text fill="#000000" font-family="sans-serif" font-size="14" font-weight="bold" lengthAdjust="spacing" textLength="44" x="208" y="102.0234">server</text></g><!--MD5=[aa2f05b2676d7d34ffa7e771fb7634f3]
cluster client--><g id="cluster_client"><path d="M32.5,86.4883 L73.5,86.4883 A3.75,3.75 0 0 1 76,88.9883 L83,108.9766 L177.5,108.9766 A2.5,2.5 0 0 1 180,111.4766 L180,182.9883 A2.5,2.5 0 0 1 177.5,185.4883 L32.5,185.4883 A2.5,2.5 0 0 1 30,182.9883 L30,88.9883 A2.5,2.5 0 0 1 32.5,86.4883 " style="stroke:#000000;stroke-width:1.5;fill:none;"/><line style="stroke:#000000;stroke-width:1.5;fill:none;" x1="30" x2="83" y1="108.9766" y2="108.9766"/><text fill="#000000" font-family="sans-serif" font-size="14" font-weight="bold" lengthAdjust="spacing" textLength="40" x="34" y="102.0234">client</text></g><!--MD5=[3334dbde63ce3d00708e67c78dbfb583]
class SocketListener--><g id="elem_SocketListener"><rect codeLine="9" fill="#F1F1F1" height="48" id="SocketListener" rx="2.5" ry="2.5" style="stroke:#181818;stroke-width:0.5;" width="131" x="305.5" y="121.4883"/><ellipse cx="320.5" cy="137.4883" fill="#ADD1B2" rx="11" ry="11" style="stroke:#181818;stroke-width:1.0;"/><path d="M322.9731,143.6313 Q322.3921,143.9302 321.7529,144.0796 Q321.1138,144.229 320.4082,144.229 Q317.9014,144.229 316.5815,142.5771 Q315.2617,140.9253 315.2617,137.8042 Q315.2617,134.6748 316.5815,133.0229 Q317.9014,131.3711 320.4082,131.3711 Q321.1138,131.3711 321.7612,131.5205 Q322.4087,131.6699 322.9731,131.9688 L322.9731,134.6914 Q322.3423,134.1104 321.7488,133.8406 Q321.1553,133.5708 320.5244,133.5708 Q319.1797,133.5708 318.4949,134.6375 Q317.8101,135.7041 317.8101,137.8042 Q317.8101,139.896 318.4949,140.9626 Q319.1797,142.0293 320.5244,142.0293 Q321.1553,142.0293 321.7488,141.7595 Q322.3423,141.4897 322.9731,140.9087 Z " fill="#000000"/><text fill="#000000" font-family="sans-serif" font-size="14" lengthAdjust="spacing" textLength="99" x="334.5" y="142.7793">SocketListener</text><line style="stroke:#181818;stroke-width:0.5;" x1="306.5" x2="435.5" y1="153.4883" y2="153.4883"/><line style="stroke:#181818;stroke-width:0.5;" x1="306.5" x2="435.5" y1="161.4883" y2="161.4883"/></g><!--MD5=[0262e3a8af5b446be4b55a474c992a24]
class MessageReceiver--><g id="elem_MessageReceiver"><rect codeLine="10" fill="#F1F1F1" height="48" id="MessageReceiver" rx="2.5" ry="2.5" style="stroke:#181818;stroke-width:0.5;" width="148" x="297" y="229.4883"/><ellipse cx="312" cy="245.4883" fill="#ADD1B2" rx="11" ry="11" style="stroke:#181818;stroke-width:1.0;"/><path d="M314.4731,251.6313 Q313.8921,251.9302 313.2529,252.0796 Q312.6138,252.229 311.9082,252.229 Q309.4014,252.229 308.0815,250.5771 Q306.7617,248.9253 306.7617,245.8042 Q306.7617,242.6748 308.0815,241.0229 Q309.4014,239.3711 311.9082,239.3711 Q312.6138,239.3711 313.2612,239.5205 Q313.9087,239.6699 314.4731,239.9688 L314.4731,242.6914 Q313.8423,242.1104 313.2488,241.8406 Q312.6553,241.5708 312.0244,241.5708 Q310.6797,241.5708 309.9949,242.6375 Q309.3101,243.7041 309.3101,245.8042 Q309.3101,247.896 309.9949,248.9626 Q310.6797,250.0293 312.0244,250.0293 Q312.6553,250.0293 313.2488,249.7595 Q313.8423,249.4897 314.4731,248.9087 Z " fill="#000000"/><text fill="#000000" font-family="sans-serif" font-size="14" lengthAdjust="spacing" textLength="116" x="326" y="250.7793">MessageReceiver</text><line style="stroke:#181818;stroke-width:0.5;" x1="298" x2="444" y1="261.4883" y2="261.4883"/><line style="stroke:#181818;stroke-width:0.5;" x1="298" x2="444" y1="269.4883" y2="269.4883"/></g><!--MD5=[1b1562314ef50edf921bad0cd204186a]
class World--><g id="elem_World"><rect codeLine="11" fill="#F1F1F1" height="48" id="World" rx="2.5" ry="2.5" style="stroke:#181818;stroke-width:0.5;" width="72" x="220" y="337.4883"/><ellipse cx="235" cy="353.4883" fill="#ADD1B2" rx="11" ry="11" style="stroke:#181818;stroke-width:1.0;"/><path d="M237.4731,359.6313 Q236.8921,359.9302 236.2529,360.0796 Q235.6138,360.229 234.9082,360.229 Q232.4014,360.229 231.0815,358.5771 Q229.7617,356.9253 229.7617,353.8042 Q229.7617,350.6748 231.0815,349.0229 Q232.4014,347.3711 234.9082,347.3711 Q235.6138,347.3711 236.2612,347.5205 Q236.9087,347.6699 237.4731,347.9688 L237.4731,350.6914 Q236.8423,350.1104 236.2488,349.8406 Q235.6553,349.5708 235.0244,349.5708 Q233.6797,349.5708 232.9949,350.6375 Q232.3101,351.7041 232.3101,353.8042 Q232.3101,355.896 232.9949,356.9626 Q233.6797,358.0293 235.0244,358.0293 Q235.6553,358.0293 236.2488,357.7595 Q236.8423,357.4897 237.4731,356.9087 Z " fill="#000000"/><text fill="#000000" font-family="sans-serif" font-size="14" lengthAdjust="spacing" textLength="40" x="249" y="358.7793">World</text><line style="stroke:#181818;stroke-width:0.5;" x1="221" x2="291" y1="369.4883" y2="369.4883"/><line style="stroke:#181818;stroke-width:0.5;" x1="221" x2="291" y1="377.4883" y2="377.4883"/></g><!--MD5=[0851f84a889f989e7bb0bebc385d0f09]
class Request--><g id="elem_Request"><rect codeLine="13" fill="#F1F1F1" height="48" id="Request" rx="2.5" ry="2.5" style="stroke:#181818;stroke-width:0.5;" width="87" x="327.5" y="337.4883"/><ellipse cx="342.5" cy="353.4883" fill="#ADD1B2" rx="11" ry="11" style="stroke:#181818;stroke-width:1.0;"/><path d="M344.9731,359.6313 Q344.3921,359.9302 343.7529,360.0796 Q343.1138,360.229 342.4082,360.229 Q339.9014,360.229 338.5815,358.5771 Q337.2617,356.9253 337.2617,353.8042 Q337.2617,350.6748 338.5815,349.0229 Q339.9014,347.3711 342.4082,347.3711 Q343.1138,347.3711 343.7612,347.5205 Q344.4087,347.6699 344.9731,347.9688 L344.9731,350.6914 Q344.3423,350.1104 343.7488,349.8406 Q343.1553,349.5708 342.5244,349.5708 Q341.1797,349.5708 340.4949,350.6375 Q339.8101,351.7041 339.8101,353.8042 Q339.8101,355.896 340.4949,356.9626 Q341.1797,358.0293 342.5244,358.0293 Q343.1553,358.0293 343.7488,357.7595 Q344.3423,357.4897 344.9731,356.9087 Z " fill="#000000"/><text fill="#000000" font-family="sans-serif" font-size="14" lengthAdjust="spacing" textLength="55" x="356.5" y="358.7793">Request</text><line style="stroke:#181818;stroke-width:0.5;" x1="328.5" x2="413.5" y1="369.4883" y2="369.4883"/><line style="stroke:#181818;stroke-width:0.5;" x1="328.5" x2="413.5" y1="377.4883" y2="377.4883"/></g><!--MD5=[8b8ed4d3c39d809e656c591f744ce388]
class CommandResult--><g id="elem_CommandResult"><rect codeLine="14" fill="#F1F1F1" height="48" id="CommandResult" rx="2.5" ry="2.5" style="stroke:#181818;stroke-width:0.5;" width="145" x="449.5" y="337.4883"/><ellipse cx="464.5" cy="353.4883" fill="#ADD1B2" rx="11" ry="11" style="stroke:#181818;stroke-width:1.0;"/><path d="M466.9731,359.6313 Q466.3921,359.9302 465.7529,360.0796 Q465.1138,360.229 464.4082,360.229 Q461.9014,360.229 460.5815,358.5771 Q459.2617,356.9253 459.2617,353.8042 Q459.2617,350.6748 460.5815,349.0229 Q461.9014,347.3711 464.4082,347.3711 Q465.1138,347.3711 465.7612,347.5205 Q466.4087,347.6699 466.9731,347.9688 L466.9731,350.6914 Q466.3423,350.1104 465.7488,349.8406 Q465.1553,349.5708 464.5244,349.5708 Q463.1797,349.5708 462.4949,350.6375 Q461.8101,351.7041 461.8101,353.8042 Q461.8101,355.896 462.4949,356.9626 Q463.1797,358.0293 464.5244,358.0293 Q465.1553,358.0293 465.7488,357.7595 Q466.3423,357.4897 466.9731,356.9087 Z " fill="#000000"/><text fill="#000000" font-family="sans-serif" font-size="14" lengthAdjust="spacing" textLength="113" x="478.5" y="358.7793">CommandResult</text><line style="stroke:#181818;stroke-width:0.5;" x1="450.5" x2="593.5" y1="369.4883" y2="369.4883"/><line style="stroke:#181818;stroke-width:0.5;" x1="450.5" x2="593.5" y1="377.4883" y2="377.4883"/></g><!--MD5=[400c6d024d741aa73bff32849d9d71ff]
class SocketClient--><g id="elem_SocketClient"><rect codeLine="18" fill="#F1F1F1" height="48" id="SocketClient" rx="2.5" ry="2.5" style="stroke:#181818;stroke-width:0.5;" width="117" x="46.5" y="121.4883"/><ellipse cx="61.5" cy="137.4883" fill="#ADD1B2" rx="11" ry="11" style="stroke:#181818;stroke-width:1.0;"/><path d="M63.9731,143.6313 Q63.3921,143.9302 62.7529,144.0796 Q62.1138,144.229 61.4082,144.229 Q58.9014,144.229 57.5815,142.5771 Q56.2617,140.9253 56.2617,137.8042 Q56.2617,134.6748 57.5815,133.0229 Q58.9014,131.3711 61.4082,131.3711 Q62.1138,131.3711 62.7612,131.5205 Q63.4087,131.6699 63.9731,131.9688 L63.9731,134.6914 Q63.3423,134.1104 62.7488,133.8406 Q62.1553,133.5708 61.5244,133.5708 Q60.1797,133.5708 59.4949,134.6375 Q58.8101,135.7041 58.8101,137.8042 Q58.8101,139.896 59.4949,140.9626 Q60.1797,142.0293 61.5244,142.0293 Q62.1553,142.0293 62.7488,141.7595 Q63.3423,141.4897 63.9731,140.9087 Z " fill="#000000"/><text fill="#000000" font-family="sans-serif" font-size="14" lengthAdjust="spacing" textLength="85" x="75.5" y="142.7793">SocketClient</text><line style="stroke:#181818;stroke-width:0.5;" x1="47.5" x2="162.5" y1="153.4883" y2="153.4883"/><line style="stroke:#181818;stroke-width:0.5;" x1="47.5" x2="162.5" y1="161.4883" y2="161.4883"/></g><!--MD5=[c3106c8b422ee76c71fd9df21b2cc90b]
link SocketListener to MessageReceiver--><g id="link_SocketListener_MessageReceiver"><path codeLine="22" d="M371,169.4883 C371,185.4883 371,206.9383 371,224.0183 " fill="none" id="SocketListener-to-MessageReceiver" style="stroke:#181818;stroke-width:1.0;stroke-dasharray:7.0,7.0;"/><polygon fill="#181818" points="371,229.1683,375,220.1683,371,224.1683,367,220.1683,371,229.1683" style="stroke:#181818;stroke-width:1.0;"/></g><!--MD5=[995dee8fe7602d1617afce1d5bac769f]
link MessageReceiver to World--><g id="link_MessageReceiver_World"><path codeLine="23" d="M346.05,277.4883 C328.09,294.0383 303.81,316.4183 284.99,333.7683 " fill="none" id="MessageReceiver-to-World" style="stroke:#181818;stroke-width:1.0;stroke-dasharray:7.0,7.0;"/><polygon fill="#181818" points="281.3,337.1683,290.634,334.0256,284.9822,333.7858,285.222,328.134,281.3,337.1683" style="stroke:#181818;stroke-width:1.0;"/></g><!--MD5=[ad8a1bf0fbb2fcf597ac6505df39bdca]
link MessageReceiver to Request--><g id="link_MessageReceiver_Request"><path codeLine="24" d="M371,277.4883 C371,293.4883 371,314.9383 371,332.0183 " fill="none" id="MessageReceiver-to-Request" style="stroke:#181818;stroke-width:1.0;stroke-dasharray:7.0,7.0;"/><polygon fill="#181818" points="371,337.1683,375,328.1683,371,332.1683,367,328.1683,371,337.1683" style="stroke:#181818;stroke-width:1.0;"/></g><!--MD5=[191be6eac043cc1680a094f0e7f195c0]
link MessageReceiver to CommandResult--><g id="link_MessageReceiver_CommandResult"><path codeLine="25" d="M403.76,277.4883 C427.63,294.2383 459.98,316.9483 484.81,334.3783 " fill="none" id="MessageReceiver-to-CommandResult" style="stroke:#181818;stroke-width:1.0;stroke-dasharray:7.0,7.0;"/><polygon fill="#181818" points="489.04,337.3483,483.9766,328.9007,484.9492,334.4733,479.3766,335.4459,489.04,337.3483" style="stroke:#181818;stroke-width:1.0;"/></g><rect height="11.7773" style="stroke:#00000000;stroke-width:1.0;fill:none;" width="69" x="279.5" y="431.4883"/><text fill="#888888" font-family="sans-serif" font-size="10" lengthAdjust="spacing" textLength="69" x="279.5" y="441.1563">Class diagram</text><!--MD5=[c21165dc8c6cfb017590d74aaa237f40]
@startuml

title Robot Worlds design
footer Class diagram

skinparam backgroundColor transparent

package nl.dirkgroot.robotworlds {
    package server {
        class SocketListener
        class MessageReceiver
        class World

        class Request
        class CommandResult
    }

    package client {
        class SocketClient
    }
}

SocketListener ..> MessageReceiver
MessageReceiver ..> World
MessageReceiver ..> Request
MessageReceiver ..> CommandResult

@enduml

PlantUML version 1.2022.6(Tue Jun 21 19:34:49 CEST 2022)
(GPL source distribution)
Java Runtime: OpenJDK Runtime Environment
JVM: OpenJDK 64-Bit Server VM
Default Encoding: UTF-8
Language: en
Country: NL
--></g></svg>