<?xml version="1.0" encoding="UTF-8" standalone="no"?><svg xmlns="http://www.w3.org/2000/svg" xmlns:xlink="http://www.w3.org/1999/xlink" contentStyleType="text/css" height="411px" preserveAspectRatio="none" style="width:615px;height:411px;background:#00000000;" version="1.1" viewBox="0 0 615 411" width="615px" zoomAndPan="magnify"><defs/><g><rect height="26.4883" style="stroke:#00000000;stroke-width:1.0;fill:none;" width="135" x="239.25" y="10"/><text fill="#000000" font-family="sans-serif" font-size="14" font-weight="bold" lengthAdjust="spacing" textLength="125" x="244.25" y="28.5352">Launch command</text><line style="stroke:#181818;stroke-width:0.5;stroke-dasharray:5.0,5.0;" x1="28" x2="28" y1="118.9766" y2="314.8398"/><line style="stroke:#181818;stroke-width:0.5;stroke-dasharray:5.0,5.0;" x1="195.5" x2="195.5" y1="118.9766" y2="314.8398"/><line style="stroke:#181818;stroke-width:0.5;stroke-dasharray:5.0,5.0;" x1="450" x2="450" y1="118.9766" y2="314.8398"/><line style="stroke:#181818;stroke-width:0.5;stroke-dasharray:5.0,5.0;" x1="582.5" x2="582.5" y1="118.9766" y2="314.8398"/><text fill="#000000" font-family="sans-serif" font-size="14" lengthAdjust="spacing" textLength="41" x="5" y="116.0234">Player</text><ellipse cx="28.5" cy="50.9883" fill="#E2E2F0" rx="8" ry="8" style="stroke:#181818;stroke-width:0.5;"/><path d="M28.5,58.9883 L28.5,85.9883 M15.5,66.9883 L41.5,66.9883 M28.5,85.9883 L15.5,100.9883 M28.5,85.9883 L41.5,100.9883 " fill="none" style="stroke:#181818;stroke-width:0.5;"/><text fill="#000000" font-family="sans-serif" font-size="14" lengthAdjust="spacing" textLength="41" x="5" y="327.375">Player</text><ellipse cx="28.5" cy="338.8281" fill="#E2E2F0" rx="8" ry="8" style="stroke:#181818;stroke-width:0.5;"/><path d="M28.5,346.8281 L28.5,373.8281 M15.5,354.8281 L41.5,354.8281 M28.5,373.8281 L15.5,388.8281 M28.5,373.8281 L41.5,388.8281 " fill="none" style="stroke:#181818;stroke-width:0.5;"/><rect fill="#E2E2F0" height="30.4883" rx="2.5" ry="2.5" style="stroke:#181818;stroke-width:0.5;" width="54" x="168.5" y="87.4883"/><text fill="#000000" font-family="sans-serif" font-size="14" lengthAdjust="spacing" textLength="40" x="175.5" y="108.0234">Client</text><rect fill="#E2E2F0" height="30.4883" rx="2.5" ry="2.5" style="stroke:#181818;stroke-width:0.5;" width="54" x="168.5" y="313.8398"/><text fill="#000000" font-family="sans-serif" font-size="14" lengthAdjust="spacing" textLength="40" x="175.5" y="334.375">Client</text><rect fill="#008000" fill-opacity="0.75294" height="30.4883" rx="2.5" ry="2.5" style="stroke:#181818;stroke-width:0.5;" width="57" x="422" y="87.4883"/><text fill="#000000" font-family="sans-serif" font-size="14" lengthAdjust="spacing" textLength="43" x="429" y="108.0234">Server</text><rect fill="#008000" fill-opacity="0.75294" height="30.4883" rx="2.5" ry="2.5" style="stroke:#181818;stroke-width:0.5;" width="57" x="422" y="313.8398"/><text fill="#000000" font-family="sans-serif" font-size="14" lengthAdjust="spacing" textLength="43" x="429" y="334.375">Server</text><rect fill="#008000" fill-opacity="0.75294" height="30.4883" rx="2.5" ry="2.5" style="stroke:#181818;stroke-width:0.5;" width="54" x="555.5" y="87.4883"/><text fill="#000000" font-family="sans-serif" font-size="14" lengthAdjust="spacing" textLength="40" x="562.5" y="108.0234">World</text><rect fill="#008000" fill-opacity="0.75294" height="30.4883" rx="2.5" ry="2.5" style="stroke:#181818;stroke-width:0.5;" width="54" x="555.5" y="313.8398"/><text fill="#000000" font-family="sans-serif" font-size="14" lengthAdjust="spacing" textLength="40" x="562.5" y="334.375">World</text><polygon fill="#181818" points="183.5,146.2871,193.5,150.2871,183.5,154.2871,187.5,150.2871" style="stroke:#181818;stroke-width:1.0;"/><line style="stroke:#181818;stroke-width:1.0;" x1="28.5" x2="189.5" y1="150.2871" y2="150.2871"/><text fill="#000000" font-family="sans-serif" font-size="13" font-weight="bold" lengthAdjust="spacing" textLength="9" x="35.5" y="145.5449">1</text><text fill="#000000" font-family="sans-serif" font-size="13" lengthAdjust="spacing" textLength="130" x="48.5" y="145.5449">Launch robot (via UI)</text><polygon fill="#008000" points="438.5,175.5977,448.5,179.5977,438.5,183.5977,442.5,179.5977" style="stroke:#008000;stroke-width:1.0;"/><line style="stroke:#008000;stroke-width:1.0;" x1="195.5" x2="444.5" y1="179.5977" y2="179.5977"/><text fill="#000000" font-family="sans-serif" font-size="13" font-weight="bold" lengthAdjust="spacing" textLength="9" x="202.5" y="174.8555">2</text><text fill="#008000" fill-opacity="0.75294" font-family="sans-serif" font-size="13" font-weight="bold" lengthAdjust="spacing" textLength="218" x="215.5" y="174.8555">{"command": "launch"} (via TCP)</text><polygon fill="#008000" points="570.5,204.9082,580.5,208.9082,570.5,212.9082,574.5,208.9082" style="stroke:#008000;stroke-width:1.0;"/><line style="stroke:#008000;stroke-width:1.0;" x1="450.5" x2="576.5" y1="208.9082" y2="208.9082"/><text fill="#000000" font-family="sans-serif" font-size="13" font-weight="bold" lengthAdjust="spacing" textLength="9" x="457.5" y="204.166">3</text><text fill="#008000" fill-opacity="0.75294" font-family="sans-serif" font-size="13" font-weight="bold" lengthAdjust="spacing" textLength="95" x="470.5" y="204.166">launchRobot()</text><polygon fill="#008000" points="461.5,234.2188,451.5,238.2188,461.5,242.2188,457.5,238.2188" style="stroke:#008000;stroke-width:1.0;"/><line style="stroke:#008000;stroke-width:1.0;stroke-dasharray:2.0,2.0;" x1="455.5" x2="581.5" y1="238.2188" y2="238.2188"/><text fill="#000000" font-family="sans-serif" font-size="13" font-weight="bold" lengthAdjust="spacing" textLength="9" x="467.5" y="233.4766">4</text><text fill="#008000" fill-opacity="0.75294" font-family="sans-serif" font-size="13" font-weight="bold" lengthAdjust="spacing" textLength="20" x="480.5" y="233.4766">OK</text><polygon fill="#008000" points="206.5,263.5293,196.5,267.5293,206.5,271.5293,202.5,267.5293" style="stroke:#008000;stroke-width:1.0;"/><line style="stroke:#008000;stroke-width:1.0;stroke-dasharray:2.0,2.0;" x1="200.5" x2="449.5" y1="267.5293" y2="267.5293"/><text fill="#000000" font-family="sans-serif" font-size="13" font-weight="bold" lengthAdjust="spacing" textLength="9" x="212.5" y="262.7871">5</text><text fill="#008000" fill-opacity="0.75294" font-family="sans-serif" font-size="13" font-weight="bold" lengthAdjust="spacing" textLength="164" x="225.5" y="262.7871">{"result": "OK"} (via TCP)</text><polygon fill="#181818" points="39.5,292.8398,29.5,296.8398,39.5,300.8398,35.5,296.8398" style="stroke:#181818;stroke-width:1.0;"/><line style="stroke:#181818;stroke-width:1.0;stroke-dasharray:2.0,2.0;" x1="33.5" x2="194.5" y1="296.8398" y2="296.8398"/><text fill="#000000" font-family="sans-serif" font-size="13" font-weight="bold" lengthAdjust="spacing" textLength="9" x="45.5" y="292.0977">6</text><text fill="#000000" font-family="sans-serif" font-size="13" lengthAdjust="spacing" textLength="75" x="58.5" y="292.0977">"OK" (via UI)</text><rect height="11.7773" style="stroke:#00000000;stroke-width:1.0;fill:none;" width="89" x="262.25" y="391.3281"/><text fill="#888888" font-family="sans-serif" font-size="10" lengthAdjust="spacing" textLength="89" x="262.25" y="400.9961">Sequence diagram</text><!--MD5=[42fb7844772ab28fb0d54b247400295d]
@startuml

title Launch command
footer Sequence diagram

skinparam backgroundColor transparent
autonumber

actor Player
participant Client
participant Server #008000c0
participant World #008000c0

Player -> Client: Launch robot (via UI)
Client -[#green]> Server: <font color=008000c0><b>{"command": "launch"} (via TCP)
Server -[#green]> World: <font color=008000c0><b>launchRobot()
Server <-[#green]- World: <font color=008000c0><b>OK
Client <-[#green]- Server: <font color=008000c0><b>{"result": "OK"} (via TCP)
Player <- - Client: "OK" (via UI)

@enduml

PlantUML version 1.2022.5(Sat Apr 30 12:55:52 CEST 2022)
(GPL source distribution)
Java Runtime: OpenJDK Runtime Environment
JVM: OpenJDK 64-Bit Server VM
Default Encoding: UTF-8
Language: en
Country: NL
--></g></svg>